<?xml version="1.0" standalone="no"?>
<!DOCTYPE svg PUBLIC "-//W3C//DTD SVG 20010904//EN"
 "http://www.w3.org/TR/2001/REC-SVG-20010904/DTD/svg10.dtd">
<svg version="1.0" xmlns="http://www.w3.org/2000/svg"
 width="220.000000pt" height="220.000000pt" viewBox="0 0 701.000000 1200.000000"
 preserveAspectRatio="xMidYMid meet">
<metadata>
Created by Hari Singh @ ACAN.IN
</metadata>
<g transform="translate(0.000000,1200.000000) scale(0.100000,-0.100000)"
fill="#FFFFFF" stroke="none">
<path d="M4585 11449 c-43 -5 -86 -12 -95 -15 -8 -4 -21 -6 -28 -5 -15 3 -118
-26 -144 -40 -10 -5 -29 -9 -43 -9 -13 0 -40 -9 -60 -20 -20 -11 -42 -20 -50
-20 -8 0 -30 -9 -50 -20 -20 -11 -43 -20 -53 -20 -9 0 -28 -9 -42 -20 -14 -11
-32 -20 -41 -20 -9 0 -27 -8 -40 -18 -13 -10 -40 -26 -59 -36 -56 -28 -79 -42
-98 -59 -10 -10 -23 -17 -29 -17 -5 0 -18 -9 -28 -20 -10 -11 -23 -20 -30 -20
-7 0 -20 -9 -30 -20 -10 -11 -23 -20 -29 -20 -6 0 -29 -18 -51 -40 -22 -21
-45 -39 -51 -40 -5 0 -25 -16 -44 -35 -19 -19 -39 -35 -45 -35 -6 0 -47 -35
-92 -79 -44 -43 -88 -81 -97 -84 -9 -4 -21 -17 -26 -29 -5 -13 -9 -19 -9 -13
-1 14 -91 -77 -91 -92 0 -7 -6 -13 -14 -13 -13 0 -78 -65 -121 -121 -11 -14
-28 -28 -37 -32 -10 -3 -18 -11 -18 -16 0 -6 -43 -54 -95 -108 -52 -54 -95
-102 -95 -106 0 -5 -27 -36 -60 -70 -33 -34 -60 -67 -60 -73 0 -24 -39 -23
-320 2 l-55 5 -124 -573 c-69 -315 -127 -582 -129 -593 -4 -15 7 -9 40 23 24
23 48 42 54 42 5 0 30 20 54 45 24 25 49 45 55 45 6 0 33 23 60 50 27 28 54
50 60 50 6 0 29 18 50 40 21 22 44 40 50 40 5 0 35 25 65 55 30 30 60 54 65
55 6 0 34 23 63 50 29 28 55 50 57 50 9 0 188 145 209 169 11 11 24 21 29 21
10 0 49 33 166 138 32 28 62 52 66 52 5 0 26 16 46 36 20 20 47 41 60 48 24
12 46 42 38 51 -3 3 -66 11 -141 18 -170 17 -184 25 -132 70 15 12 32 28 40
35 7 6 17 12 22 12 5 0 23 14 40 30 18 17 39 30 47 30 8 0 15 4 15 9 0 5 16
16 35 25 19 9 37 20 40 25 2 5 23 18 44 29 67 35 85 46 109 66 12 11 22 16 22
12 0 -5 7 -3 15 4 26 21 107 60 126 60 10 0 21 5 24 10 3 6 15 10 26 10 10 0
19 5 19 10 0 6 11 10 24 10 14 0 27 4 30 9 3 5 18 11 33 14 36 6 147 35 198
50 57 17 412 16 490 -1 33 -8 68 -18 77 -23 10 -5 27 -9 37 -9 11 0 23 -4 26
-10 3 -5 17 -10 31 -10 13 0 24 -4 24 -10 0 -5 9 -10 20 -10 11 0 20 -4 20
-10 0 -5 9 -10 20 -10 11 0 20 -4 20 -8 0 -5 12 -15 28 -22 15 -8 39 -25 55
-39 15 -14 27 -21 27 -16 0 6 54 -44 120 -110 66 -66 120 -125 120 -131 0 -6
11 -21 25 -34 14 -13 25 -29 25 -36 0 -6 7 -17 15 -24 8 -6 31 -45 51 -86 20
-41 40 -74 45 -74 5 0 9 -9 9 -20 0 -11 5 -20 10 -20 6 0 10 -9 10 -20 0 -11
5 -20 10 -20 6 0 10 -8 10 -17 0 -10 13 -45 28 -78 16 -33 30 -64 31 -70 1 -5
9 -17 17 -26 8 -9 11 -18 8 -22 -4 -4 1 -18 10 -31 9 -14 16 -39 16 -55 0 -16
5 -33 10 -36 6 -3 10 -17 10 -30 0 -13 4 -26 9 -29 8 -6 12 -19 30 -116 5 -25
15 -70 24 -100 14 -55 26 -117 46 -240 5 -36 15 -141 22 -235 16 -228 7 -454
-31 -765 -5 -41 -12 -97 -15 -125 -4 -27 -10 -59 -15 -70 -5 -11 -11 -42 -14
-70 -3 -27 -10 -75 -16 -105 -6 -30 -14 -75 -17 -100 -3 -25 -9 -49 -14 -55
-5 -5 -9 -28 -9 -51 0 -24 -4 -46 -10 -49 -5 -3 -10 -21 -10 -39 0 -17 -4 -36
-10 -42 -5 -5 -11 -23 -13 -39 -2 -17 -9 -48 -16 -70 -6 -22 -22 -78 -35 -125
-29 -101 -55 -187 -66 -215 -18 -49 -30 -93 -30 -113 0 -11 -4 -23 -8 -26 -5
-3 -28 -65 -51 -138 -24 -73 -54 -155 -66 -183 -12 -27 -28 -66 -35 -85 -7
-19 -21 -54 -31 -77 -11 -24 -19 -46 -19 -51 0 -8 -33 -82 -50 -114 -6 -10
-10 -27 -10 -37 0 -11 -4 -23 -10 -26 -12 -7 -13 -45 -2 -45 5 0 62 27 127 60
65 33 124 60 132 60 7 0 13 5 13 10 0 6 9 10 20 10 11 0 20 5 20 10 0 6 7 10
16 10 16 0 124 53 152 74 8 6 23 11 33 13 14 2 19 -3 19 -21 0 -14 4 -27 9
-30 5 -3 11 -18 14 -33 8 -49 106 -384 116 -398 4 -5 8 -23 10 -40 1 -16 7
-34 12 -40 5 -5 9 -19 9 -31 0 -13 5 -26 10 -29 6 -3 10 -17 10 -30 0 -13 5
-27 10 -30 6 -3 10 -15 10 -26 0 -42 29 -15 63 61 21 45 37 85 37 89 0 5 14
35 30 66 17 31 30 62 30 69 0 6 13 38 30 71 16 33 30 65 30 71 0 5 9 29 20 52
11 22 20 46 20 51 0 6 7 27 16 48 9 21 25 56 34 78 10 22 32 87 50 145 18 58
41 122 51 143 11 22 19 47 19 57 0 11 5 22 10 25 6 3 10 21 10 39 0 17 4 36
10 42 5 5 11 18 13 29 2 11 6 27 9 35 3 8 13 40 22 70 9 30 27 89 40 131 14
41 32 109 41 150 9 40 21 84 26 97 5 13 9 34 9 47 0 13 4 26 9 29 5 3 11 23
14 43 3 21 11 63 17 93 6 30 14 72 17 93 3 20 9 40 14 43 5 3 9 25 9 49 0 24
5 47 10 50 6 3 10 24 10 46 0 22 4 48 9 58 6 10 11 40 13 67 1 27 6 54 10 60
5 7 10 38 13 70 2 33 6 66 8 74 9 28 28 193 43 365 18 228 18 671 -1 866 -21
218 -50 421 -63 443 -3 5 -7 27 -9 50 -2 22 -8 45 -13 50 -6 6 -10 27 -10 47
0 21 -4 41 -10 44 -5 3 -10 21 -10 40 0 19 -4 37 -10 40 -5 3 -10 21 -10 40 0
19 -4 37 -10 40 -5 3 -10 17 -10 30 0 13 -4 27 -10 30 -5 3 -10 19 -10 36 0
16 -4 37 -9 47 -15 30 -29 66 -42 107 -13 43 -37 100 -75 180 -13 28 -24 56
-24 63 0 6 -4 12 -10 12 -5 0 -10 9 -10 20 0 11 -4 20 -10 20 -5 0 -10 6 -10
12 0 19 -69 155 -85 168 -8 7 -15 17 -15 22 0 6 -13 30 -30 55 -16 24 -30 47
-30 52 0 4 -16 22 -35 41 -19 19 -35 39 -35 44 0 6 -14 25 -30 43 -17 18 -30
36 -30 42 0 12 -279 291 -291 291 -6 0 -22 11 -37 25 -15 14 -32 25 -38 25 -6
0 -19 9 -29 20 -10 11 -24 20 -32 20 -7 0 -13 5 -13 10 0 6 -8 10 -19 10 -10
0 -24 6 -30 13 -6 8 -30 22 -53 32 -24 10 -62 26 -85 36 -24 11 -51 19 -60 19
-10 0 -27 7 -37 15 -10 8 -23 12 -28 9 -5 -3 -15 -1 -22 5 -7 6 -26 12 -42 14
-17 2 -34 6 -40 10 -13 8 -205 27 -253 26 -20 -1 -72 -5 -116 -10z"/>
<path d="M2453 11208 c-19 -30 -33 -61 -33 -74 0 -7 -9 -29 -20 -49 -11 -20
-20 -42 -20 -50 0 -8 -9 -30 -20 -50 -11 -20 -20 -42 -20 -49 0 -8 -6 -27 -14
-43 -8 -15 -25 -55 -37 -88 -12 -33 -30 -79 -40 -102 -11 -24 -19 -49 -19 -57
0 -8 -4 -18 -10 -21 -5 -3 -10 -17 -10 -30 0 -13 -4 -26 -8 -29 -5 -3 -19 -38
-31 -78 -13 -40 -27 -81 -32 -90 -5 -10 -9 -24 -9 -33 0 -8 -9 -30 -20 -50
-11 -20 -20 -44 -20 -53 0 -10 -4 -22 -9 -27 -4 -6 -48 -131 -96 -280 -48
-148 -91 -278 -96 -287 -5 -10 -9 -27 -9 -37 0 -11 -4 -23 -10 -26 -5 -3 -10
-17 -10 -30 0 -13 -4 -27 -10 -30 -5 -3 -10 -17 -10 -30 0 -13 -4 -27 -10 -30
-5 -3 -10 -15 -10 -26 0 -10 -4 -27 -9 -37 -6 -9 -17 -44 -27 -77 -9 -33 -25
-87 -35 -119 -11 -33 -19 -65 -19 -73 0 -7 -4 -21 -9 -31 -17 -33 -51 -150
-51 -175 0 -14 -4 -29 -10 -32 -5 -3 -10 -17 -10 -30 0 -13 -4 -27 -10 -30 -5
-3 -10 -17 -10 -30 0 -13 -4 -27 -10 -30 -5 -3 -10 -19 -10 -36 0 -16 -4 -37
-9 -47 -12 -23 -30 -81 -52 -166 -10 -39 -33 -125 -50 -191 -17 -66 -34 -135
-36 -153 -3 -18 -9 -35 -14 -38 -5 -3 -9 -20 -9 -39 0 -19 -5 -37 -10 -40 -6
-3 -10 -19 -10 -36 0 -16 -4 -37 -9 -47 -15 -31 -31 -88 -31 -115 0 -14 -4
-29 -10 -32 -5 -3 -10 -21 -10 -40 0 -19 -4 -37 -10 -40 -5 -3 -10 -21 -10
-40 0 -19 -4 -37 -10 -40 -5 -3 -10 -16 -10 -28 0 -29 -29 -140 -38 -147 -4
-3 -8 -12 -8 -20 -6 -59 -147 -757 -154 -764 -6 -6 -10 -27 -10 -49 0 -21 -4
-47 -10 -57 -5 -10 -12 -36 -14 -57 -2 -21 -6 -45 -9 -53 -4 -8 -13 -55 -22
-105 -8 -49 -20 -112 -25 -140 -28 -138 -40 -207 -50 -280 -6 -44 -15 -105
-20 -135 -10 -57 -25 -149 -41 -260 -6 -36 -12 -92 -15 -125 -3 -33 -9 -69
-14 -80 -9 -20 -17 -85 -26 -230 -2 -44 -9 -89 -14 -100 -5 -11 -12 -51 -15
-90 -3 -38 -10 -104 -15 -145 -26 -201 -56 -567 -75 -893 -17 -303 -20 -1028
-5 -1277 15 -247 60 -652 81 -735 5 -22 12 -65 15 -95 3 -30 10 -59 15 -64 5
-6 9 -29 9 -52 0 -24 5 -46 10 -49 6 -3 10 -21 10 -40 0 -19 5 -37 10 -40 6
-3 10 -18 10 -32 0 -15 4 -40 9 -57 5 -17 15 -51 21 -76 7 -25 16 -53 21 -62
5 -10 9 -27 9 -37 0 -11 4 -23 10 -26 5 -3 10 -15 10 -26 0 -10 4 -27 9 -37
11 -21 25 -56 42 -102 7 -19 18 -42 24 -50 14 -18 26 -47 32 -75 2 -10 12 -28
21 -40 10 -11 29 -41 42 -67 13 -27 27 -48 32 -48 4 0 8 -8 8 -18 0 -10 9 -24
20 -32 11 -8 20 -19 20 -25 0 -6 25 -38 55 -70 30 -33 55 -63 55 -68 0 -4 8
-11 18 -14 9 -4 31 -21 47 -38 50 -52 151 -115 185 -115 10 0 22 -4 25 -10 3
-5 17 -10 30 -10 13 0 26 -4 29 -9 6 -8 109 -23 161 -23 68 1 233 30 241 43 3
5 16 9 29 9 13 0 27 4 30 10 3 5 13 10 22 10 16 0 101 41 163 79 19 11 44 25
55 30 12 5 27 16 34 25 7 9 19 16 26 16 6 0 20 9 30 20 10 11 23 20 30 20 6 0
24 13 40 30 16 16 34 30 40 30 6 0 33 23 60 51 28 28 60 55 73 60 12 5 22 15
22 24 0 8 6 15 12 15 15 0 218 200 218 215 0 5 32 41 70 80 39 38 70 76 70 82
0 16 -36 17 -45 3 -17 -27 -249 -153 -302 -163 -15 -3 -48 -11 -73 -18 -61
-16 -260 -23 -273 -10 -6 6 -26 11 -43 11 -18 0 -36 4 -39 10 -3 5 -14 10 -24
10 -25 0 -74 26 -96 50 -10 11 -21 18 -25 15 -4 -2 -22 11 -40 30 -19 19 -40
35 -47 35 -7 0 -13 6 -13 13 0 7 -27 39 -60 72 -33 33 -60 64 -60 70 0 7 -11
22 -25 35 -13 12 -22 26 -20 30 3 4 -2 13 -10 20 -8 7 -15 18 -15 25 0 6 -9
20 -20 30 -11 10 -20 26 -20 36 0 21 -41 99 -52 99 -4 0 -8 9 -8 20 0 11 -4
28 -9 38 -20 39 -32 72 -67 182 -20 63 -40 124 -44 135 -7 19 -14 43 -41 148
-6 23 -15 50 -20 59 -5 10 -9 35 -9 56 0 21 -4 42 -9 48 -5 5 -11 29 -14 54
-3 25 -11 70 -17 100 -6 30 -15 84 -20 120 -5 36 -13 94 -19 130 -31 207 -58
499 -80 860 -6 106 -5 138 5 149 11 12 15 11 24 -10 5 -13 16 -33 22 -44 16
-24 59 -94 73 -117 24 -40 111 -149 173 -217 59 -65 251 -221 272 -221 5 0 15
-6 22 -13 19 -17 130 -70 223 -106 112 -42 227 -72 315 -81 41 -4 94 -11 118
-15 44 -8 262 9 347 26 136 29 383 117 480 171 11 6 43 23 70 38 279 148 693
490 966 799 107 122 181 204 194 216 6 6 31 37 55 70 25 33 71 93 104 133 79
100 127 167 356 505 37 55 52 64 83 50 12 -6 40 -16 62 -22 41 -13 67 -23 110
-43 14 -6 28 -9 31 -5 3 3 -20 86 -52 184 -92 284 -193 585 -198 590 -2 2 -12
0 -23 -5 -22 -12 -60 -29 -173 -75 -133 -54 -403 -166 -427 -177 -13 -6 -33
-14 -45 -20 -13 -5 -49 -21 -81 -33 l-59 -24 64 -22 c91 -32 148 -60 148 -71
0 -18 -163 -283 -251 -409 -217 -307 -388 -504 -609 -702 -136 -121 -149 -131
-277 -223 -259 -185 -526 -318 -778 -389 -214 -59 -319 -77 -461 -77 -264 0
-421 71 -627 284 -93 96 -216 269 -198 280 4 3 48 1 97 -5 49 -5 136 -14 194
-20 140 -13 283 -27 405 -40 196 -20 301 -30 388 -35 91 -6 113 -18 88 -48
-18 -22 -209 -112 -301 -141 -89 -29 -96 -32 -89 -39 6 -6 161 11 222 24 26 5
66 14 90 19 49 10 207 69 222 82 5 5 17 9 27 9 10 0 18 4 18 9 0 5 8 11 18 15
87 29 346 232 557 436 184 177 371 395 499 580 33 47 78 111 100 143 45 63 83
124 93 147 4 8 23 40 43 70 20 30 50 82 67 115 42 80 97 185 111 210 14 26 87
185 95 208 10 27 -9 21 -84 -28 -38 -25 -74 -45 -79 -45 -6 0 -10 -4 -10 -9 0
-5 -16 -16 -35 -25 -19 -9 -37 -20 -40 -25 -3 -5 -34 -26 -70 -47 l-65 -38 0
-96 c0 -140 -24 -201 -107 -282 -26 -26 -73 -59 -103 -75 -50 -26 -64 -28
-160 -27 -98 0 -110 3 -173 34 -75 36 -124 86 -169 173 -25 46 -28 63 -28 150
0 91 3 104 33 170 42 90 116 159 209 195 52 20 75 23 133 19 66 -5 189 -39
209 -58 13 -12 73 -11 81 0 3 6 34 25 68 44 34 18 99 57 145 85 46 29 87 52
92 52 5 0 10 4 12 8 2 5 31 23 65 41 63 34 86 36 165 16 22 -6 29 -3 34 11 7
23 17 47 37 94 20 46 47 122 47 135 0 11 -65 31 -130 41 -19 3 -39 9 -45 13
-5 5 -26 11 -45 14 -19 3 -55 11 -80 17 -84 21 -110 23 -128 8 -9 -8 -42 -30
-72 -48 -30 -18 -90 -55 -133 -82 -43 -26 -80 -48 -82 -48 -2 0 -31 -18 -64
-40 -33 -22 -63 -40 -66 -40 -4 0 -20 -10 -37 -21 -36 -26 -64 -26 -144 -4
-32 9 -77 20 -99 25 -22 5 -58 14 -80 20 -22 6 -58 15 -80 20 -36 8 -69 16
-130 35 -14 4 -30 -4 -52 -25 -89 -84 -234 -128 -356 -109 -81 13 -217 89
-217 121 0 5 -9 19 -21 31 -43 45 -62 106 -62 205 0 51 5 103 11 115 5 12 17
38 25 57 42 95 115 161 223 199 96 34 192 23 301 -33 82 -42 178 -191 190
-294 4 -33 12 -56 22 -61 16 -9 216 -59 316 -79 65 -14 84 -12 120 9 17 10 46
26 65 35 19 10 60 34 90 54 30 20 62 39 70 43 8 4 31 17 52 29 20 13 78 48
130 80 l93 56 180 -44 c218 -54 252 -63 288 -74 33 -10 40 2 76 120 13 41 28
85 34 98 7 14 7 26 1 31 -9 9 -190 58 -247 66 -16 3 -34 8 -40 12 -6 4 -31 10
-54 15 -51 10 -111 23 -173 38 -47 12 -90 21 -174 39 -48 11 -51 10 -80 -17
-38 -34 -109 -83 -128 -86 -7 -1 -24 -8 -38 -16 -17 -10 -58 -14 -130 -14 -95
0 -110 2 -160 27 -68 35 -101 66 -149 137 -49 73 -61 113 -61 198 0 128 67
256 169 321 118 76 284 80 398 10 86 -53 193 -216 193 -294 0 -13 6 -27 12
-32 7 -4 125 -36 263 -71 315 -80 323 -82 363 -89 18 -3 35 -9 38 -14 3 -5 20
-9 39 -9 24 0 35 5 39 18 18 64 57 234 54 237 -3 3 -129 34 -343 85 -149 36
-195 50 -212 64 -6 6 -25 36 -41 66 -16 30 -73 126 -126 214 -53 87 -96 160
-96 162 0 17 -56 84 -71 84 -10 0 -21 5 -24 10 -3 6 -21 10 -40 10 -19 0 -36
4 -39 9 -3 5 -23 11 -43 14 -21 2 -87 17 -147 33 -92 24 -110 26 -114 14 -7
-24 -111 -117 -156 -141 -125 -66 -275 -64 -382 4 -63 40 -129 118 -153 180
-39 107 -26 239 35 343 27 46 120 134 141 134 7 0 21 4 31 9 43 22 105 33 168
29 162 -10 293 -120 354 -298 10 -31 21 -46 35 -48 25 -3 116 -20 175 -34 79
-17 123 -26 185 -38 144 -28 123 -10 235 -199 9 -14 32 -52 53 -84 20 -31 37
-59 37 -61 0 -14 143 -232 157 -240 10 -5 37 -13 61 -18 51 -10 111 -23 172
-38 77 -19 134 -31 171 -37 35 -5 37 -3 43 29 14 69 26 135 32 179 l6 47 -33
5 c-19 3 -64 13 -101 23 -59 15 -71 22 -93 55 -14 21 -25 41 -25 44 0 2 -15
29 -34 58 -19 29 -44 70 -55 90 -43 75 -60 104 -122 206 l-64 104 -80 1 c-168
4 -283 77 -358 228 -17 36 -21 60 -21 143 0 92 3 105 33 167 38 79 97 137 178
176 51 24 69 27 158 27 108 0 142 -9 214 -58 61 -42 96 -82 131 -154 26 -53
30 -73 30 -141 0 -86 -12 -129 -63 -229 -26 -52 -30 -66 -20 -81 26 -37 68
-111 108 -187 22 -44 53 -98 67 -120 39 -61 146 -155 177 -155 24 0 35 605 13
775 -18 147 -39 261 -66 360 -103 378 -238 639 -463 896 -45 52 -108 116 -140
144 -32 27 -59 53 -61 57 -4 9 15 25 -747 -611 -38 -33 -126 -105 -195 -162
-69 -57 -127 -106 -130 -109 -3 -3 -41 -35 -85 -70 -44 -36 -82 -68 -85 -71
-3 -3 -43 -36 -90 -75 -47 -38 -90 -73 -96 -79 -7 -5 -20 -17 -31 -25 -77 -62
-130 -105 -138 -114 -9 -10 -150 -127 -217 -181 -14 -11 -46 -38 -73 -60 -89
-76 -262 -220 -329 -275 -36 -30 -81 -68 -99 -84 -17 -15 -48 -40 -67 -54 -19
-15 -51 -41 -70 -60 -19 -18 -50 -43 -67 -55 -18 -12 -35 -29 -39 -37 -3 -8
-55 -392 -115 -853 l-109 -838 169 -202 c93 -111 218 -260 278 -332 60 -71
203 -242 318 -380 115 -137 350 -418 522 -623 172 -205 313 -376 313 -380 0
-12 -97 -122 -203 -231 -111 -113 -226 -211 -248 -211 -8 0 -35 26 -61 58 -48
59 -332 407 -426 522 -29 36 -88 107 -130 159 -42 52 -111 135 -152 186 -41
50 -164 200 -272 333 -226 275 -207 229 -188 451 6 64 15 172 21 241 5 69 14
168 19 220 5 52 11 129 14 170 2 41 40 350 85 685 45 336 86 646 92 690 5 44
14 109 20 145 25 171 39 280 39 307 0 16 4 33 9 39 9 9 16 51 27 164 3 30 10
59 15 64 5 6 9 34 9 62 0 29 5 56 10 59 5 3 10 24 10 46 0 22 4 48 9 58 6 10
11 40 13 67 1 27 6 54 10 61 5 6 10 35 12 65 4 53 292 1366 342 1553 38 146
45 176 51 218 3 20 9 40 14 43 5 3 9 20 9 39 0 19 5 37 10 40 6 3 10 21 10 40
0 19 5 37 10 40 6 3 10 20 10 36 0 17 4 38 9 48 5 9 12 35 15 57 3 21 14 66
25 99 57 179 73 255 53 255 -6 0 -14 -6 -19 -12z"/>
<path d="M4360 8732 c-48 -31 -69 -64 -76 -119 -9 -72 10 -119 65 -160 108
-83 261 -5 261 132 0 54 -16 88 -62 132 -30 28 -39 31 -98 31 -43 0 -74 -6
-90 -16z"/>
<path d="M3229 8253 c-31 -15 -39 -25 -68 -76 -28 -50 -26 -92 7 -151 34 -62
71 -84 140 -85 81 -1 137 42 161 124 15 50 9 84 -21 134 -39 62 -148 89 -219
54z"/>
<path d="M1050 7327 c-106 -89 -195 -167 -197 -172 -2 -9 67 -100 150 -196 21
-24 53 -62 71 -84 19 -22 37 -37 40 -34 6 6 136 642 132 646 -1 1 -89 -70
-196 -160z"/>
<path d="M3673 7235 c-48 -24 -93 -102 -93 -158 0 -36 44 -105 83 -131 82 -53
197 -24 237 61 42 90 12 185 -73 229 -32 17 -120 16 -154 -1z"/>
<path d="M2813 6492 c-43 -27 -93 -99 -93 -133 0 -35 50 -127 80 -149 39 -28
142 -28 187 0 32 19 83 106 83 141 0 21 -19 65 -44 102 -43 64 -145 83 -213
39z"/>
<path d="M3655 5561 c-39 -8 -65 -27 -95 -71 -20 -28 -25 -47 -24 -93 1 -48 6
-63 31 -94 39 -49 79 -69 133 -68 100 2 161 67 161 172 0 60 -31 120 -74 141
-30 15 -95 21 -132 13z"/>
</g>
</svg>
