<!-- Created with Inkscape (http://www.inkscape.org/) -->

<svg xmlns:rdf="http://www.w3.org/1999/02/22-rdf-syntax-ns#" xmlns="http://www.w3.org/2000/svg" xmlns:osb="http://www.openswatchbook.org/uri/2009/osb" version="1.1" xmlns:cc="http://creativecommons.org/ns#" xmlns:xlink="http://www.w3.org/1999/xlink" viewBox="0 0 1366 646" xmlns:dc="http://purl.org/dc/elements/1.1/">

<defs>

<filter id="filter3843" color-interpolation-filters="sRGB">

<feGaussianBlur stdDeviation="0.38904682"/>

</filter>

<filter id="filter3814" width="200%" height="200%" x="-20%" y="-20%">

<feGaussianBlur stdDeviation="6.205666"/>

</filter>

</defs>

<metadata>

<rdf:RDF>

<cc:Work rdf:about="">

<dc:format>image/svg+xml</dc:format>

<dc:type rdf:resource="http://purl.org/dc/dcmitype/StillImage"/>

<dc:title/>

</cc:Work>

</rdf:RDF>

</metadata>

<g id='temp'></g>
<g id='event-svg'>
<path d="m215.15,540.2a110.59,110.59,0,1,1,-221.18,0,110.59,110.59,0,1,1,221.18,0z" stroke-opacity="0.57254902" transform="translate(599.89916,-290.89268)" stroke="#9bebff" stroke-linecap="round" stroke-dasharray="none" stroke-width="1" fill="none"/>

<g id="circle1">
<path d="m196.66,540.2a92.108,92.108,0,1,1,-184.22,0,92.108,92.108,0,1,1,184.22,0z" stroke-opacity="0.57254902" transform="translate(599.89916,-290.89268)" stroke="#9bebff" stroke-linecap="round" stroke-dasharray="none" stroke-width="8" fill="none"/>
</g>

<path d="m159.94,540.2a55.389,55.389,0,1,1,-110.78,0,55.389,55.389,0,1,1,110.78,0z" stroke-opacity="0.39790578" transform="translate(599.89916,-290.89268)" filter="url(#filter3814)" stroke="#9bebff" stroke-linecap="round" stroke-dasharray="none" stroke-width="30" fill="none"/>

<path d="m634.96,216.45c20.902-52.129,109.22-63.923,136.46-2.6404" stroke="#ff9700" stroke-opacity="0.5" stroke-linecap="butt" stroke-dasharray="100, 20" stroke-width="3.5" fill="none"/>

<path d="M768.07,294.63c-29.83,47.59-119.17,44.16-135.11-20.98" stroke="#ff9700" stroke-opacity="0.5" stroke-linecap="butt" stroke-dasharray="0, 100, 20" stroke-width="3.5" fill="none"/>

<g id="triangles">
<path fill="#ff9700" fill-opacity="0.5" transform="matrix(0.99940528,0.03448305,-0.03448305,0.99940528,713.58973,-94.459959)" stroke="#ff9700"  stroke-linecap="round" stroke-dasharray="none" stroke-width="3.5" d="m43.983,435.15,15.265-8.7052-0.09355,17.572z"/>

<path d="M64.303,433,50.952,445.12,47.131,427.5z" transform="matrix(0.97344001,0.2289422,-0.2289422,0.97344001,702.61235,-279.11448)" stroke="#ff9700"  stroke-linecap="round" stroke-dasharray="none" stroke-width="3.5" fill="#ff9700" fill-opacity="0.5" />
</g>

<g id="circle2" stroke="#9bebff" stroke-linecap="round" stroke-dasharray="none" stroke-width="20" fill="none" stroke-opacity="0.38219898">
<path d="m221.79,540.2a117.23,117.23,0,1,1,-234.47,0,117.23,117.23,0,1,1,234.47,0z" transform="translate(600.039,-290.59271)" />
</g>
</g>

<g id="event-svg-title" style="font-size:32px;font-style:normal;font-variant:normal;font-weight:bold;font-stretch:normal;line-height:125%;word-spacing:0px;fill:#ffffff;fill-opacity:1;stroke-width:1px;stroke:#0aa8bf;stroke-opacity:1;font-family:bitwise; letter-spacing:3px; cursor: pointer">

<text y="220.07532" x="326.96347"> Dance </text>
<text y="281.18301" x="380.82401"> Fine Arts </text>
<text y="340.9747" x="430.78113"> Dramatics </text>
<text y="402.3497" x="502.39844"> Techtrix </text>

<text y="413.82141" x="767.0415"> Funtrix </text>
<text y="355.97223" x="844.6524"> Music </text>
<text y="289.65201" x="894.6662"> Literary </text>
<text y="225.54889" x="942.08954"> RoboKon </text>

<text y="477.3497" x="770.6524"> Quiz </text>
<text y="477.3497" x="535.78113"> Digital Arts </text>



</g>

</svg>

