<!-- Created with Inkscape (http://www.inkscape.org/) -->
<svg xmlns:rdf="http://www.w3.org/1999/02/22-rdf-syntax-ns#" xmlns="http://www.w3.org/2000/svg" version="1.1" xmlns:cc="http://creativecommons.org/ns#" xmlns:dc="http://purl.org/dc/elements/1.1/" viewBox="0 0 121.74 327.57">
<metadata>
<rdf:RDF>
<cc:Work rdf:about="">
<dc:format>image/svg+xml</dc:format>
<dc:type rdf:resource="http://purl.org/dc/dcmitype/StillImage"/>
<dc:title/>
</cc:Work>
</rdf:RDF>
</metadata>
<g stroke-linejoin="miter" stroke="#FFF" stroke-linecap="butt" stroke-dasharray="none" stroke-miterlimit="4" transform="translate(-181.93429,-259.27119)" fill="none">
<path d="m233.83,261.77c-23.234,1.0102-23.777-0.4339-25.743,1.6618-1.6554,1.7647-23.657,28.643-23.657,28.643s0.044,97.749,0.42363,101.67c4.0865-0.10324,24.537-0.19542,24.537-0.19542" stroke-width="5"/>
<path d="m237.31,584.34c-23.286-1.3031-23.791,0.13298-25.815-1.9861-1.7049-1.7843-25.175-28.921-25.175-28.921s-0.80879-96.959-0.53477-100.87c4.0938,0.15484,23.493-0.21141,23.493-0.21141" stroke-width="5"/>
<path d="m192.13,422.93c136.21-0.71689,107.53-0.71689,107.53-0.71689" stroke-width="3"/>
<path d="m231.56,394.26c36.565,0,36.561,0.0896,36.561,0.0896" stroke-width="2"/>
<path d="m231.56,366.63c36.565,0,36.561,0.0896,36.561,0.0896" stroke-width="2"/>
<path d="m231.56,339.51c36.565,0,36.561,0.0896,36.561,0.0896" stroke-width="2"/>
<path d="m231.56,314.67c36.565,0,36.561,0.0896,36.561,0.0896" stroke-width="2"/>
<path d="m231.56,531.9c36.565,0,36.561,0.0896,36.561,0.0896" stroke-width="2"/>
<path d="m231.56,504.27c36.565,0,36.561,0.0896,36.561,0.0896" stroke-width="2"/>
<path d="m231.56,477.15c36.565,0,36.561,0.0896,36.561,0.0896" stroke-width="2"/>
<path d="m231.56,452.31c36.565,0,36.561,0.0896,36.561,0.0896" stroke-width="2"/>
</g>
</svg>
