<svg version="1.0" xmlns="http://www.w3.org/2000/svg"
	 width="250.000000pt" height="250.000000pt" viewBox="0 0 1500.000000 1200.000000"
	 preserveAspectRatio="xMidYMid meet">
	<g transform="translate(0.000000,1200.000000) scale(0.100000,-0.100000)"
			stroke="#fff" stroke-width="70" fill="none">
	
	<path id="svg1" d="M8355 11494 c-16 -2 -64 -9 -105 -14 -78 -11 -172 -35 -202 -51 -10
			-5 -29 -9 -43 -9 -13 0 -40 -9 -60 -20 -20 -11 -42 -20 -50 -20 -8 0 -30 -9
			-50 -20 -20 -11 -44 -20 -54 -20 -10 0 -26 -9 -36 -20 -10 -11 -28 -20 -40
			-20 -12 0 -33 -8 -46 -18 -13 -10 -40 -26 -59 -36 -56 -28 -79 -42 -98 -59
			-10 -10 -23 -17 -29 -17 -5 0 -18 -9 -28 -20 -10 -11 -23 -20 -30 -20 -7 0
			-20 -9 -30 -20 -10 -11 -23 -20 -30 -20 -6 0 -29 -18 -50 -40 -21 -22 -44 -40
			-50 -40 -6 0 -26 -16 -45 -35 -19 -19 -39 -35 -45 -35 -6 0 -46 -36 -90 -80
			-44 -44 -84 -80 -90 -80 -13 0 -250 -240 -258 -262 -3 -9 -18 -22 -34 -30 -15
			-7 -33 -24 -39 -37 -7 -13 -53 -65 -102 -115 -49 -50 -91 -96 -93 -103 -2 -6
			-32 -41 -67 -77 l-64 -66 -78 0 c-43 0 -82 5 -85 10 -3 6 -43 10 -88 10 -63 0
			-78 3 -69 12 7 7 12 27 12 44 0 18 5 36 10 39 6 3 10 21 10 40 0 19 5 37 10
			40 6 3 10 21 10 40 0 19 5 37 10 40 6 3 10 21 10 40 0 19 5 37 10 40 6 3 10
			24 10 45 0 21 5 42 10 45 6 3 10 21 10 40 0 19 5 37 10 40 6 3 10 21 10 40 0
			19 5 37 10 40 6 3 10 21 10 40 0 19 4 36 9 39 4 3 11 29 15 58 4 29 11 57 15
			63 4 5 13 35 20 65 7 30 16 64 20 75 33 82 42 190 19 213 -18 18 -73 15 -89
			-5 -22 -28 -39 -61 -39 -78 0 -8 -9 -30 -20 -50 -11 -20 -20 -42 -20 -50 0 -8
			-8 -29 -18 -47 -10 -18 -27 -58 -37 -88 -9 -30 -26 -72 -36 -93 -11 -22 -19
			-45 -19 -53 0 -7 -9 -29 -20 -49 -11 -20 -20 -44 -20 -55 0 -10 -4 -22 -10
			-25 -5 -3 -10 -14 -10 -25 0 -10 -9 -35 -19 -57 -10 -21 -24 -58 -31 -83 -7
			-25 -16 -53 -21 -62 -5 -10 -9 -24 -9 -33 0 -8 -9 -30 -20 -50 -11 -20 -20
			-44 -20 -55 0 -10 -4 -21 -9 -24 -5 -3 -21 -45 -36 -93 -15 -49 -31 -96 -36
			-105 -5 -10 -9 -27 -9 -37 0 -11 -4 -23 -10 -26 -5 -3 -10 -17 -10 -30 0 -13
			-4 -27 -10 -30 -5 -3 -10 -17 -10 -30 0 -13 -4 -27 -10 -30 -5 -3 -10 -17 -10
			-30 0 -13 -4 -27 -10 -30 -5 -3 -10 -17 -10 -30 0 -13 -4 -27 -10 -30 -5 -3
			-10 -19 -10 -35 0 -16 -4 -32 -10 -35 -5 -3 -10 -17 -10 -30 0 -13 -4 -27 -10
			-30 -5 -3 -10 -17 -10 -30 0 -13 -4 -27 -10 -30 -5 -3 -10 -17 -10 -30 0 -13
			-4 -26 -9 -29 -5 -3 -16 -36 -26 -73 -9 -38 -21 -76 -26 -85 -5 -10 -9 -27 -9
			-37 0 -11 -4 -23 -10 -26 -5 -3 -10 -17 -10 -30 0 -13 -4 -27 -10 -30 -5 -3
			-10 -21 -10 -40 0 -19 -4 -37 -10 -40 -5 -3 -10 -15 -10 -26 0 -10 -4 -27 -9
			-37 -15 -31 -31 -88 -31 -115 0 -14 -4 -29 -10 -32 -5 -3 -10 -17 -10 -30 0
			-13 -4 -27 -10 -30 -5 -3 -10 -15 -10 -26 0 -10 -4 -27 -9 -37 -12 -23 -46
			-140 -66 -227 -9 -38 -20 -79 -25 -90 -4 -11 -13 -40 -20 -65 -6 -25 -16 -59
			-21 -76 -5 -17 -9 -42 -9 -57 0 -14 -4 -29 -10 -32 -5 -3 -10 -21 -10 -40 0
			-19 -4 -37 -10 -40 -5 -3 -10 -21 -10 -40 0 -19 -4 -37 -10 -40 -5 -3 -10 -19
			-10 -36 0 -16 -4 -37 -9 -47 -15 -29 -31 -87 -31 -110 0 -12 -4 -30 -9 -40
			-10 -17 -44 -153 -56 -222 -11 -60 -37 -119 -59 -134 -11 -7 -46 -36 -77 -62
			-31 -27 -67 -58 -81 -69 -37 -30 -113 -92 -190 -158 -49 -41 -68 -65 -68 -82
			0 -15 48 -82 145 -199 119 -143 144 -179 136 -193 -11 -20 -81 -386 -81 -420
			0 -12 -4 -25 -10 -28 -6 -3 -10 -25 -10 -49 0 -23 -4 -46 -9 -51 -10 -10 -18
			-67 -27 -175 -3 -36 -10 -69 -15 -74 -5 -6 -9 -34 -9 -62 0 -29 -4 -56 -10
			-59 -6 -3 -10 -33 -10 -65 0 -32 -4 -62 -10 -65 -5 -3 -10 -35 -10 -70 0 -35
			-4 -67 -10 -70 -5 -3 -10 -37 -10 -75 0 -38 -4 -72 -10 -75 -5 -3 -10 -34 -10
			-69 0 -34 -4 -66 -9 -71 -5 -6 -12 -48 -15 -95 -3 -47 -10 -116 -15 -155 -22
			-157 -62 -560 -80 -795 -6 -80 -14 -176 -17 -215 -8 -96 -8 -1447 0 -1515 3
			-30 10 -98 16 -150 23 -218 43 -371 61 -475 11 -60 24 -137 30 -170 6 -33 15
			-69 19 -80 9 -20 16 -57 27 -128 3 -20 9 -40 14 -43 5 -3 9 -20 9 -39 0 -19 5
			-37 10 -40 6 -3 10 -17 10 -30 0 -13 5 -27 10 -30 6 -3 10 -17 10 -30 0 -13 5
			-27 10 -30 6 -3 10 -15 10 -26 0 -10 5 -28 10 -39 6 -11 15 -29 20 -40 6 -11
			10 -25 10 -32 0 -7 14 -40 30 -73 17 -33 30 -65 30 -71 0 -7 10 -25 23 -41 13
			-15 31 -44 40 -64 9 -20 23 -42 32 -49 8 -7 15 -18 15 -25 0 -6 9 -20 20 -30
			11 -10 20 -23 20 -29 0 -6 21 -31 46 -57 25 -26 51 -57 58 -70 6 -13 22 -29
			35 -35 13 -7 42 -30 65 -53 23 -23 47 -41 53 -41 6 0 16 -7 23 -15 16 -19 68
			-45 91 -45 10 0 21 -4 24 -10 3 -5 16 -10 29 -10 12 0 26 -4 31 -9 21 -19 252
			-38 268 -22 6 6 37 11 68 11 32 0 61 5 64 10 3 6 17 10 30 10 13 0 27 5 30 10
			3 6 17 10 30 10 13 0 27 5 30 10 3 6 14 10 24 10 20 0 103 40 129 62 9 8 39
			25 65 38 27 12 51 29 54 36 3 8 13 14 23 14 9 0 25 9 35 20 10 11 23 20 30 20
			6 0 24 14 40 30 16 17 34 30 40 30 6 0 35 25 65 55 30 30 59 55 64 55 13 0
			266 252 266 265 0 6 32 42 70 80 61 60 70 74 70 105 0 20 -5 41 -12 48 -20 20
			-92 15 -113 -8 -10 -11 -24 -20 -30 -20 -7 0 -18 -7 -25 -15 -19 -23 -212
			-115 -242 -115 -15 0 -30 -4 -33 -10 -3 -5 -21 -10 -40 -10 -19 0 -37 -4 -40
			-10 -3 -5 -42 -10 -85 -10 -43 0 -82 5 -85 10 -3 6 -21 10 -40 10 -19 0 -37 5
			-40 10 -3 6 -14 10 -24 10 -25 0 -74 26 -96 50 -10 11 -23 20 -30 20 -13 0
			-198 184 -204 203 -2 6 -10 20 -19 30 -16 18 -36 50 -51 82 -5 12 -16 27 -25
			34 -9 7 -16 21 -16 31 0 22 -26 74 -45 90 -8 7 -15 21 -15 31 0 11 -4 28 -10
			39 -5 11 -14 29 -20 40 -5 11 -10 29 -10 39 0 11 -4 23 -10 26 -5 3 -10 17
			-10 30 0 13 -4 27 -10 30 -6 3 -10 16 -10 29 0 12 -4 26 -8 32 -5 5 -21 56
			-36 114 -16 58 -32 113 -37 122 -5 10 -9 27 -9 37 0 11 -4 23 -10 26 -5 3 -10
			26 -10 50 0 24 -4 47 -10 50 -5 3 -10 26 -10 50 0 24 -4 47 -10 50 -5 3 -10
			28 -10 55 0 27 -4 52 -10 55 -5 3 -10 35 -10 70 0 35 -4 67 -10 70 -5 3 -10
			37 -10 75 0 38 -4 72 -10 75 -5 3 -10 44 -10 90 0 46 -4 86 -9 89 -4 3 -11 47
			-14 98 -4 51 -13 181 -21 288 -8 107 -14 196 -12 197 1 1 11 -14 21 -35 32
			-58 141 -201 208 -271 73 -75 180 -163 251 -207 103 -64 343 -174 378 -174 9
			0 43 -7 75 -16 62 -18 146 -29 283 -39 82 -6 287 12 390 34 25 6 59 13 75 16
			59 13 290 105 370 148 11 6 40 21 65 33 79 38 340 218 475 327 72 57 186 158
			254 223 160 153 445 471 586 654 61 79 121 157 135 174 14 17 61 85 105 151
			44 66 85 126 92 133 7 7 13 17 13 22 0 5 6 15 13 22 7 7 20 25 29 40 15 23 21
			25 50 18 44 -11 136 -45 145 -53 11 -12 68 -8 81 5 7 7 12 23 12 36 0 41 -238
			771 -260 797 -22 26 -48 27 -92 2 -24 -13 -95 -44 -158 -70 -103 -41 -373
			-153 -425 -176 -63 -28 -95 -41 -135 -57 -59 -23 -70 -32 -70 -60 0 -28 20
			-42 120 -80 l75 -28 -75 -125 c-423 -707 -1003 -1238 -1618 -1480 -56 -23
			-119 -45 -140 -50 -20 -6 -55 -15 -77 -21 -22 -6 -74 -18 -115 -27 -41 -8 -90
			-19 -108 -25 -40 -12 -326 -11 -367 2 -16 5 -55 16 -85 25 -30 8 -81 31 -115
			49 -79 45 -241 199 -317 300 -53 72 -58 81 -40 84 12 2 30 -2 41 -7 11 -6 60
			-11 110 -11 49 0 93 -4 96 -10 3 -6 49 -10 104 -10 53 0 101 -4 106 -9 6 -5
			53 -12 105 -15 52 -3 138 -8 190 -11 52 -3 104 -10 115 -15 11 -5 44 -11 74
			-12 l54 -3 -68 -33 c-37 -19 -108 -47 -158 -64 -51 -17 -98 -35 -104 -40 -18
			-14 -16 -63 2 -78 16 -13 155 -7 225 10 19 5 62 14 95 21 62 12 243 75 260 90
			5 5 15 9 22 9 24 0 207 123 335 225 446 356 831 833 1134 1400 38 72 71 137
			74 145 3 8 25 55 48 103 44 91 50 125 30 145 -32 32 -91 5 -313 -141 -162
			-107 -147 -86 -150 -212 -1 -89 -6 -120 -24 -161 -27 -63 -89 -124 -161 -160
			-47 -24 -67 -28 -140 -28 -85 1 -141 18 -211 67 -24 17 -71 82 -98 135 -37 73
			-26 211 25 292 91 146 244 196 409 133 97 -37 161 -41 206 -13 19 12 84 51
			144 87 61 36 124 74 140 84 108 65 141 80 165 74 14 -4 43 -9 65 -12 51 -6 62
			6 104 117 18 47 40 102 48 122 9 20 13 48 9 61 -6 26 -19 34 -78 48 -21 5 -57
			14 -80 20 -24 5 -61 14 -83 19 -22 5 -60 14 -85 20 -87 23 -146 24 -177 2 -42
			-28 -180 -115 -248 -155 -261 -154 -233 -141 -278 -127 -23 6 -58 16 -77 20
			-140 36 -170 43 -205 51 -22 5 -58 14 -80 20 -90 25 -107 23 -150 -15 -43 -40
			-128 -86 -156 -86 -10 0 -21 -4 -24 -10 -10 -16 -135 -12 -185 6 -25 9 -59 24
			-76 34 -40 25 -108 107 -128 155 -18 41 -22 183 -7 213 5 9 19 38 31 64 35 74
			108 136 193 165 65 22 78 23 132 13 82 -15 159 -55 202 -104 45 -52 91 -147
			99 -205 3 -25 8 -53 10 -62 5 -18 110 -66 121 -56 3 4 15 1 27 -5 33 -18 166
			-45 261 -54 55 -5 65 -3 130 32 39 20 88 49 110 64 22 15 69 44 105 64 36 20
			105 62 155 92 54 32 96 52 105 48 14 -6 47 -14 135 -34 22 -5 60 -14 85 -20
			25 -6 63 -15 85 -20 90 -20 121 -28 138 -35 28 -12 63 3 76 32 24 53 81 232
			81 255 0 13 -4 28 -8 34 -8 14 -83 46 -90 40 -2 -3 -20 1 -39 9 -20 8 -45 15
			-56 15 -11 0 -34 4 -51 9 -53 16 -166 44 -246 61 -54 11 -86 18 -165 39 -22 6
			-65 13 -95 17 -55 6 -56 6 -109 -39 -49 -42 -95 -65 -192 -96 -61 -19 -102
			-14 -203 27 -57 24 -119 90 -156 167 -30 62 -32 74 -27 134 13 162 101 271
			258 320 77 24 175 5 253 -48 80 -56 133 -136 161 -245 8 -33 18 -63 23 -68 7
			-7 213 -64 317 -88 22 -5 59 -14 83 -19 23 -6 59 -15 80 -20 20 -5 73 -19 117
			-31 144 -39 166 -42 192 -25 12 8 26 28 29 43 4 15 17 68 30 119 27 102 30
			146 12 161 -12 9 -145 46 -208 58 -14 2 -36 8 -50 13 -14 5 -50 14 -80 20
			-176 37 -210 51 -236 93 -13 21 -24 40 -24 44 0 3 -13 24 -29 47 -15 23 -51
			80 -78 127 -155 266 -157 269 -188 281 -30 11 -59 19 -145 38 -25 6 -88 22
			-140 37 -143 40 -150 39 -215 -33 -137 -151 -314 -184 -458 -84 -90 63 -138
			150 -142 257 -3 111 42 215 120 277 46 36 158 77 212 77 41 0 55 -4 141 -42
			80 -35 147 -119 192 -240 16 -42 27 -59 43 -63 344 -74 378 -81 450 -92 34 -5
			42 -12 85 -80 84 -133 125 -200 206 -334 44 -72 91 -138 104 -147 13 -8 42
			-19 65 -23 23 -4 60 -12 82 -17 22 -6 63 -15 90 -22 28 -6 66 -15 85 -19 186
			-46 178 -52 219 157 15 72 14 137 -1 149 -7 5 -57 20 -110 33 -54 13 -98 27
			-98 30 0 4 -23 45 -51 91 -54 88 -85 141 -103 174 -42 75 -144 239 -159 255
			-15 17 -31 20 -100 20 -131 0 -222 42 -289 134 -47 65 -59 103 -59 193 0 69 4
			91 27 137 35 72 88 125 159 161 50 26 67 29 144 29 67 -1 96 -6 133 -23 74
			-35 132 -93 167 -165 50 -104 42 -188 -34 -337 -41 -82 -41 -84 15 -169 16
			-25 48 -83 72 -130 56 -112 89 -160 150 -220 75 -74 148 -102 176 -67 13 16
			20 110 28 402 7 275 -3 411 -52 665 -28 146 -103 374 -175 528 -22 46 -39 85
			-39 87 0 6 -85 142 -133 215 -81 119 -160 212 -270 314 -102 96 -130 111 -159
			83 -11 -11 -115 -98 -258 -217 -474 -395 -948 -788 -1149 -955 -140 -115 -270
			-224 -290 -241 -20 -17 -76 -65 -126 -106 -96 -79 -497 -412 -530 -440 -98
			-82 -131 -106 -134 -97 -2 6 2 16 8 22 6 6 11 30 11 53 0 24 5 46 10 49 6 3
			10 33 10 65 0 32 5 62 10 65 6 3 10 30 10 60 0 30 5 57 10 60 6 3 10 18 10 32
			0 14 4 42 9 62 9 36 34 178 48 281 8 54 9 55 38 52 24 -2 38 5 70 38 21 22 43
			40 49 40 9 0 49 34 165 138 32 28 62 52 67 52 6 0 28 18 49 40 21 22 44 40 50
			40 6 0 35 25 65 55 30 30 59 55 65 55 6 0 33 23 60 50 27 28 54 50 60 50 6 0
			29 18 50 40 21 22 45 40 52 40 6 0 37 25 68 55 31 30 62 55 67 55 11 0 49 31
			167 138 32 28 62 52 67 52 6 0 28 18 49 40 21 22 44 40 50 40 6 0 21 10 33 23
			25 26 30 88 9 105 -16 14 -127 32 -196 32 -46 0 -52 2 -41 15 7 8 18 15 24 15
			7 0 23 12 37 26 13 14 39 32 57 39 17 8 32 19 32 24 0 6 8 11 18 11 11 0 27 9
			37 20 10 11 21 20 25 20 7 0 95 48 145 80 50 31 128 70 142 70 7 0 28 9 48 20
			20 11 44 20 55 20 10 0 22 5 25 10 3 6 19 10 35 10 16 0 32 5 35 10 3 6 21 10
			40 10 19 0 37 5 40 10 3 6 21 10 40 10 19 0 36 4 39 9 9 15 263 23 351 11 135
			-18 155 -22 161 -31 3 -5 16 -9 29 -9 13 0 27 -4 30 -10 3 -5 14 -10 24 -10
			22 0 116 -47 131 -65 7 -8 18 -15 24 -15 7 0 23 -11 36 -25 13 -14 28 -25 34
			-25 14 0 226 -212 226 -226 0 -6 11 -21 25 -34 14 -13 25 -29 25 -36 0 -6 7
			-17 15 -24 8 -7 27 -37 41 -69 15 -31 34 -64 42 -73 20 -23 62 -108 62 -125 0
			-7 18 -50 40 -95 22 -46 40 -88 40 -94 0 -7 7 -25 15 -40 8 -16 15 -39 15 -51
			0 -12 5 -25 10 -28 6 -3 10 -17 10 -30 0 -13 5 -27 10 -30 6 -3 10 -17 10 -30
			0 -13 5 -27 10 -30 6 -3 10 -28 10 -55 0 -27 5 -52 10 -55 6 -3 10 -21 10 -40
			0 -19 5 -37 10 -40 6 -3 10 -26 10 -50 0 -24 5 -47 10 -50 6 -3 10 -33 10 -65
			0 -32 4 -61 9 -64 4 -3 11 -58 15 -123 3 -65 9 -154 13 -198 7 -90 -14 -449
			-27 -480 -5 -11 -12 -56 -14 -100 -8 -130 -17 -199 -27 -210 -5 -5 -9 -33 -9
			-61 0 -29 -4 -56 -10 -59 -5 -3 -10 -26 -10 -50 0 -24 -4 -47 -10 -50 -5 -3
			-10 -28 -10 -55 0 -27 -4 -52 -10 -55 -5 -3 -10 -24 -10 -46 0 -21 -4 -47 -10
			-57 -5 -9 -21 -66 -35 -127 -15 -60 -30 -119 -35 -130 -5 -11 -14 -45 -21 -75
			-7 -30 -15 -62 -20 -70 -4 -8 -12 -35 -19 -60 -7 -25 -16 -53 -21 -62 -5 -10
			-9 -27 -9 -37 0 -11 -5 -23 -10 -26 -5 -3 -10 -19 -10 -35 0 -16 -9 -45 -20
			-65 -11 -20 -20 -44 -20 -55 0 -10 -4 -22 -10 -25 -5 -3 -10 -15 -10 -26 0
			-10 -4 -27 -9 -37 -5 -9 -14 -35 -21 -57 -7 -22 -23 -64 -36 -93 -13 -29 -24
			-59 -24 -67 0 -7 -4 -17 -10 -20 -5 -3 -10 -15 -10 -25 0 -11 -9 -35 -20 -55
			-11 -20 -20 -42 -20 -50 0 -9 -4 -23 -9 -33 -39 -77 -51 -106 -51 -122 0 -10
			-7 -23 -15 -30 -18 -15 -20 -81 -3 -98 28 -28 82 -13 243 67 88 44 172 82 186
			85 14 3 42 17 63 31 47 32 54 31 61 -2 4 -16 10 -36 16 -45 5 -10 9 -28 9 -40
			0 -23 16 -81 31 -110 5 -10 9 -23 9 -30 0 -17 39 -148 51 -170 5 -9 12 -35 15
			-58 4 -22 11 -43 15 -46 5 -3 9 -16 9 -29 0 -13 4 -26 9 -29 5 -3 12 -26 15
			-50 4 -24 13 -50 21 -56 19 -16 96 -9 105 10 54 108 70 145 70 155 0 7 14 39
			30 70 17 31 30 62 30 69 0 7 16 43 35 82 19 38 35 77 35 86 0 9 4 19 9 22 4 3
			14 26 21 51 7 25 17 48 21 51 5 3 9 14 9 24 0 11 9 35 20 55 11 20 20 44 20
			55 0 10 5 22 10 25 6 3 10 17 10 30 0 13 5 27 10 30 6 3 10 19 10 35 0 16 5
			32 10 35 6 3 10 15 10 25 0 11 9 35 20 55 11 20 20 44 20 55 0 10 5 22 10 25
			6 3 10 21 10 40 0 19 4 36 9 39 4 3 20 49 35 103 16 54 32 106 37 115 5 10 9
			27 9 37 0 11 5 23 10 26 6 3 10 17 10 30 0 13 4 26 9 29 8 6 11 20 27 124 3
			23 10 45 15 48 5 3 9 20 9 39 0 19 5 37 10 40 6 3 10 21 10 40 0 19 5 37 10
			40 6 3 10 26 10 50 0 24 5 47 10 50 6 3 10 24 10 45 0 21 5 42 10 45 6 3 10
			26 10 50 0 24 4 46 9 49 4 3 11 22 14 43 3 21 11 65 16 98 5 33 19 119 29 190
			19 121 26 179 52 437 13 124 13 788 0 876 -5 37 -16 128 -25 202 -17 149 -72
			440 -86 455 -5 5 -9 24 -9 41 0 18 -4 36 -10 39 -5 3 -10 21 -10 40 0 19 -4
			37 -10 40 -5 3 -10 17 -10 30 0 13 -4 27 -10 30 -5 3 -10 19 -10 36 0 28 -3
			37 -28 86 -7 13 -12 32 -12 42 0 11 -4 23 -10 26 -5 3 -10 15 -10 25 0 11 -9
			35 -20 55 -11 20 -20 42 -20 49 0 8 -13 40 -30 71 -16 31 -30 63 -30 71 0 8
			-7 17 -15 20 -8 4 -15 12 -15 18 0 16 -63 142 -82 164 -8 9 -22 33 -31 53 -9
			20 -23 42 -32 49 -8 7 -15 18 -15 24 0 7 -13 25 -30 41 -16 16 -30 34 -30 40
			0 6 -16 26 -35 45 -19 19 -35 39 -35 44 0 14 -292 306 -306 306 -6 0 -21 11
			-34 25 -13 14 -29 25 -36 25 -6 0 -17 7 -24 15 -7 9 -33 25 -56 35 -24 11 -45
			24 -49 29 -7 12 -64 41 -80 41 -6 0 -30 9 -53 20 -22 11 -49 20 -60 20 -10 0
			-23 5 -28 10 -6 6 -54 21 -108 35 -74 19 -132 26 -244 29 -81 2 -160 3 -177 0z"/>

			<path id="svg2" d="M8084 8761 c-60 -42 -77 -75 -82 -156 -6 -94 21 -154 87 -196 39 -24
			56 -29 116 -29 60 0 76 4 110 27 71 47 95 94 95 180 0 78 -23 128 -79 172 -37
			29 -44 31 -123 31 -78 0 -88 -3 -124 -29z m223 -37 c45 "/>

			<path id="svg3" d="M6975 8298 c-102 -56 -144 -181 -94 -281 46 -91 88 -117 192 -117 66
			0 78 3 114 29 54 39 83 89 90 156 9 88 -33 172 -105 209 -36 19 -166 22 -197
			4z m177 -40 c64 
			"/>

			<path id="svg4" d="M7415 7278 c-50 -27 -86 -74 -107 -139 l-21 -66 30 -65 c24 -51 40
			-71 78 -96 43 -28 56 -32 118 -32 57 0 78 5 112 25 47 27 63 48 89 118 26 70
			9 154 -42 205 -56 56 -72 62 -156 62 -44 0 -90 -6 -101 -12z m207 -61 c35 -30
			 "/>

			<path id="svg5" d="M6549 6531 c-59 -37 -109 -116 -109 -170 0 -55 33 -127 79 -171 30
			-30 50 -39 89 -45 116 -16 191 22 238 119 39 80 28 154 -32 225 -64 77 -181
			95 -265 42z m174 -23 c61 "/>

			<path id="svg6" d="M7387 5600 c-117 -37 -172 -183 -113 -298 41 -79 95 -112 185 -112
			78 0 117 20 163 81 39 53 57 131 43 186 -12 48 -58 111 -94 128 -42 20 -143
			29 -184 15z m164 "/>
	
	</g>
</svg>