<!-- Created with Inkscape (http://www.inkscape.org/) -->

<svg xmlns:rdf="http://www.w3.org/1999/02/22-rdf-syntax-ns#" xmlns="http://www.w3.org/2000/svg" version="1.1" xmlns:cc="http://creativecommons.org/ns#" xmlns:dc="http://purl.org/dc/elements/1.1/" viewBox="0 0 261.15 151.28">

<defs>

<filter id="filter3850" color-interpolation-filters="sRGB">

<feGaussianBlur stdDeviation="0.084848678"/>

</filter>

</defs>

<metadata>

<rdf:RDF>

<cc:Work rdf:about="">

<dc:format>image/svg+xml</dc:format>

<dc:type rdf:resource="http://purl.org/dc/dcmitype/StillImage"/>

<dc:title/>

</cc:Work>

</rdf:RDF>

</metadata>

<g transform="translate(-398.68723,-761.39064)">

	<g id='Detail' class='options'>
	<path stroke-linejoin="round" d="m238.82,487.65c0,11.207-9.4343,20.292-21.072,20.292s-21.072-9.0849-21.072-20.292,9.4343-20.292,21.072-20.292,21.072,9.0849,21.072,20.292z" stroke-opacity="0.72774868" transform="translate(417.83141,296.03683)" stroke-dashoffset="0" stroke="#ff944c" stroke-miterlimit="4" stroke-dasharray="none" stroke-width="4" fill="none"/>

	<path stroke-linejoin="miter" d="m635.1,783.27-68.155-0.27593" stroke-opacity="0.72774868" stroke="#ff944c" stroke-linecap="butt" stroke-width="1px" fill="none"/>

	<path stroke-linejoin="round" d="m1077.2,415.07c0,1.4477-1.359,2.6213-3.0353,2.6213s-3.0352-1.1736-3.0352-2.6213,1.3589-2.6213,3.0352-2.6213,3.0353,1.1736,3.0353,2.6213z" stroke-opacity="0.72774868" transform="translate(-439.10248,368.61866)" stroke-dashoffset="0" stroke="#ff944c" stroke-miterlimit="4" stroke-dasharray="none" stroke-width="4" fill="#ff944c"/>

	<path stroke-linejoin="round" d="m1077.2,415.07c0,1.4477-1.359,2.6213-3.0353,2.6213s-3.0352-1.1736-3.0352-2.6213,1.3589-2.6213,3.0352-2.6213,3.0353,1.1736,3.0353,2.6213z" stroke-opacity="0.72774868" transform="translate(-506.70548,368.34273)" stroke-dashoffset="0" stroke="#ff944c" stroke-miterlimit="4" stroke-dasharray="none" stroke-width="4" fill="#ff944c"/>

	<text style="letter-spacing:0px;word-spacing:0px;" font-weight="normal" fill-opacity="0.72941176" xml:space="preserve" font-size="24px" font-stretch="normal" line-height="125%" font-variant="normal" y="791.94763" x="464.32809" font-family="Adobe Caslon Pro" font-style="normal" fill="#ff944c"><tspan fill-opacity="0.72941176" font-size="32px" y="791.94763" x="464.32809" fill="#ff944c">Details</tspan></text>
	</g>

	<g id='Rules' class='options'>
	<path stroke-linejoin="round" d="m238.82,487.65c0,11.207-9.4343,20.292-21.072,20.292s-21.072-9.0849-21.072-20.292,9.4343-20.292,21.072-20.292,21.072,9.0849,21.072,20.292z" stroke-opacity="0.72774868" transform="translate(418.84045,348.09836)" stroke-dashoffset="0" stroke="#2194ff" stroke-miterlimit="4" stroke-dasharray="none" stroke-width="4" fill="none"/>

	<path stroke-linejoin="miter" d="m636.48,835.43-68.155-0.27593" stroke-opacity="0.72774868" stroke="#2194ff" stroke-linecap="butt" stroke-width="1px" fill="none"/>

	<path stroke-linejoin="round" d="m1077.2,415.07c0,1.4477-1.359,2.6213-3.0353,2.6213s-3.0352-1.1736-3.0352-2.6213,1.3589-2.6213,3.0352-2.6213,3.0353,1.1736,3.0353,2.6213z" stroke-opacity="0.72774868" transform="translate(-437.72278,420.76956)" stroke-dashoffset="0" stroke="#2194ff" stroke-miterlimit="4" stroke-dasharray="none" stroke-width="4" fill="#ff944c"/>

	<path stroke-linejoin="round" d="m1077.2,415.07c0,1.4477-1.359,2.6213-3.0353,2.6213s-3.0352-1.1736-3.0352-2.6213,1.3589-2.6213,3.0352-2.6213,3.0353,1.1736,3.0353,2.6213z" stroke-opacity="0.72774868" transform="translate(-505.32578,420.49362)" stroke-dashoffset="0" stroke="#2194ff" stroke-miterlimit="4" stroke-dasharray="none" stroke-width="4" fill="#ff944c"/>

	<text style="letter-spacing:0px;word-spacing:0px;" font-weight="normal" fill-opacity="0.72941176" font-variant="normal" font-size="24px" font-stretch="normal" line-height="125%" font-style="normal" y="845.01819" x="484.03125" font-family="Adobe Caslon Pro" xml:space="preserve" fill="#2194ff"><tspan font-size="32px" >Rules</tspan></text>
	</g>

	<g id="Contact" class='options'>
	<path stroke-linejoin="round" d="m238.82,487.65c0,11.207-9.4343,20.292-21.072,20.292s-21.072-9.0849-21.072-20.292,9.4343-20.292,21.072-20.292,21.072,9.0849,21.072,20.292z" stroke-opacity="0.72251306" transform="translate(419.0217,402.72985)" stroke-dashoffset="0" stroke="#860000" stroke-miterlimit="4" stroke-dasharray="none" stroke-width="4" fill="none"/>

	<path stroke-linejoin="miter" d="m636.2,890.61-68.155-0.27593" stroke-opacity="0.72251306" stroke="#860000" stroke-linecap="butt" stroke-width="1px" fill="none"/>

	<path stroke-linejoin="round" d="m1077.2,415.07c0,1.4477-1.359,2.6213-3.0353,2.6213s-3.0352-1.1736-3.0352-2.6213,1.3589-2.6213,3.0352-2.6213,3.0353,1.1736,3.0353,2.6213z" stroke-opacity="0.72251306" transform="translate(-437.99868,475.95569)" stroke-dashoffset="0" filter="url(#filter3850)" stroke="#860000" stroke-miterlimit="4" stroke-dasharray="none" stroke-width="4" fill="#ff944c"/>

	<path stroke-linejoin="round" d="m1077.2,415.07c0,1.4477-1.359,2.6213-3.0353,2.6213s-3.0352-1.1736-3.0352-2.6213,1.3589-2.6213,3.0352-2.6213,3.0353,1.1736,3.0353,2.6213z" stroke-opacity="0.72251306" transform="translate(-505.60178,475.67976)" stroke-dashoffset="0" stroke="#860000" stroke-miterlimit="4" stroke-dasharray="none" stroke-width="4" fill="#ff944c"/>

	<text style="letter-spacing:0px;word-spacing:0px;" font-weight="normal" fill-opacity="0.72156863" xml:space="preserve" font-size="24px" font-stretch="normal" line-height="125%" font-variant="normal" y="896.52789" x="440.02899" font-family="Adobe Caslon Pro" font-style="normal" fill="#860000"><tspan font-size="32px">Contacts</tspan></text>
	</g>

</g>

</svg>

