<!-- Created with Inkscape (http://www.inkscape.org/) -->
<svg xmlns:rdf="http://www.w3.org/1999/02/22-rdf-syntax-ns#" style="enable-background:new;" xmlns="http://www.w3.org/2000/svg" version="1.1" xmlns:cc="http://creativecommons.org/ns#" xmlns:xlink="http://www.w3.org/1999/xlink" viewBox="0 0 1400 180" xmlns:dc="http://purl.org/dc/elements/1.1/">
<defs>
<linearGradient id="linearGradient3776" y2="880" gradientUnits="userSpaceOnUse" x2="1400" y1="880" x1="0.87">
<stop stop-color="#3dadff" stop-opacity="0.38392857" offset="0"/>
<stop stop-color="#0a729f" stop-opacity="0.38392857" offset="0.75"/>
<stop stop-color="#0a729f" stop-opacity="0.5535714" offset="1"/>
</linearGradient>
</defs>
<metadata>
<rdf:RDF>
<cc:Work rdf:about="">
<dc:format>image/svg+xml</dc:format>
<dc:type rdf:resource="http://purl.org/dc/dcmitype/StillImage"/>
<dc:title/>
</cc:Work>
</rdf:RDF>
</metadata>
<g transform="translate(-0.8668845,-788.49903)">
<path d="m1.1,950c28-0.6,530-0.37,730-0.91,40-0.11,49-0.26,86-7.3,51-24,73-77,110-110,45-36,68-41,110-41,81-0.068,140,2.3,220,1.9-0.56,26-1.5,46,6.1,68,4.8,14,86,9.3,110,9.5l-0.053,31s-88,4.5-120-7.2c-9.2-3.5-23-14-26-39-56,1.7-130-1.4-200,0.6-40,16-38,20-59,36-42,29-58,53-99,67-38,14-87,11-130,11-200,0.68-700,3.8-730,2.2z" fill-rule="evenodd" fill="url(#linearGradient3776)"/>
</g>
</svg>
