<?xml version="1.0" encoding="UTF-8" standalone="no"?>
<!-- Created with Inkscape (http://www.inkscape.org/) -->

<svg
   xmlns:dc="http://purl.org/dc/elements/1.1/"
   xmlns:cc="http://creativecommons.org/ns#"
   xmlns:rdf="http://www.w3.org/1999/02/22-rdf-syntax-ns#"
   xmlns:svg="http://www.w3.org/2000/svg"
   xmlns="http://www.w3.org/2000/svg"
   xmlns:xlink="http://www.w3.org/1999/xlink"
   xmlns:sodipodi="http://sodipodi.sourceforge.net/DTD/sodipodi-0.dtd"
   xmlns:inkscape="http://www.inkscape.org/namespaces/inkscape"
   width="1368.2628"
   height="254.10274"
   id="svg2"
   version="1.1"
   inkscape:version="0.48.4 r9939"
   sodipodi:docname="shield_up_min.svgz"
   style="enable-background:new">
  <defs
     id="defs4">
    <linearGradient
       id="linearGradient3788">
      <stop
         style="stop-color:#3b64d6;stop-opacity:0.375;"
         offset="0"
         id="stop3790" />
      <stop
         id="stop3798"
         offset="0.5"
         style="stop-color:#002e91;stop-opacity:0.39285713;" />
      <stop
         style="stop-color:#002e5f;stop-opacity:0.5535714;"
         offset="1"
         id="stop3792" />
    </linearGradient>
    <linearGradient
       id="linearGradient3770">
      <stop
         style="stop-color:#3dadff;stop-opacity:0.38392857;"
         offset="0"
         id="stop3772" />
      <stop
         style="stop-color:#0a729f;stop-opacity:0.38392857;"
         offset="0.75"
         id="stop3786" />
      <stop
         style="stop-color:#0a729f;stop-opacity:0.5535714;"
         offset="1"
         id="stop3774" />
    </linearGradient>
    <inkscape:path-effect
       effect="skeletal"
       id="path-effect2993"
       is_visible="true"
       pattern="M 0,5 C 0,2.24 2.24,0 5,0 7.76,0 10,2.24 10,5 10,7.76 7.76,10 5,10 2.24,10 0,7.76 0,5 z"
       copytype="single_stretched"
       prop_scale="1"
       scale_y_rel="false"
       spacing="0"
       normal_offset="0"
       tang_offset="0"
       prop_units="false"
       vertical_pattern="false"
       fuse_tolerance="0" />
    <inkscape:path-effect
       effect="skeletal"
       id="path-effect2987"
       is_visible="true"
       pattern="M 0,5 C 0,2.24 2.24,0 5,0 7.76,0 10,2.24 10,5 10,7.76 7.76,10 5,10 2.24,10 0,7.76 0,5 z"
       copytype="single_stretched"
       prop_scale="1"
       scale_y_rel="false"
       spacing="0"
       normal_offset="0"
       tang_offset="0"
       prop_units="false"
       vertical_pattern="false"
       fuse_tolerance="0" />
    <pattern
       patternUnits="userSpaceOnUse"
       width="30"
       height="15"
       patternTransform="translate(802.46088,-35.723705)"
       id="pattern5209">
      <image
         sodipodi:absref="C:\xampp\htdocs\project2015\main\svg\../images/honeycomb.png"
         xlink:href="../images/honeycomb.png"
         y="0"
         x="0"
         id="image2998"
         height="15"
         width="30" />
    </pattern>
    <filter
       id="filter5214"
       inkscape:label="filter1"
       color-interpolation-filters="sRGB">
      <feGaussianBlur
         stdDeviation="3.5"
         id="feGaussianBlur5216" />
    </filter>
    <linearGradient
       inkscape:collect="always"
       xlink:href="#linearGradient3770"
       id="linearGradient3776"
       x1="0.86688453"
       y1="879.30927"
       x2="1368.6261"
       y2="879.30927"
       gradientUnits="userSpaceOnUse" />
    <linearGradient
       inkscape:collect="always"
       xlink:href="#linearGradient3788"
       id="linearGradient3796"
       x1="0.36328173"
       y1="622.47357"
       x2="1365.7379"
       y2="622.47357"
       gradientUnits="userSpaceOnUse" />
    <linearGradient
       inkscape:collect="always"
       xlink:href="#linearGradient3788"
       id="linearGradient3001"
       gradientUnits="userSpaceOnUse"
       x1="0.36328173"
       y1="622.47357"
       x2="1365.7379"
       y2="622.47357" />
  </defs>
  <sodipodi:namedview
     id="base"
     pagecolor="#ffffff"
     bordercolor="#666666"
     borderopacity="1.0"
     inkscape:pageopacity="0.0"
     inkscape:pageshadow="2"
     inkscape:zoom="0.71449488"
     inkscape:cx="681.76983"
     inkscape:cy="353.46407"
     inkscape:document-units="px"
     inkscape:current-layer="layer1"
     showgrid="false"
     inkscape:showpageshadow="false"
     inkscape:window-width="1366"
     inkscape:window-height="706"
     inkscape:window-x="-8"
     inkscape:window-y="-8"
     inkscape:window-maximized="1"
     fit-margin-top="0"
     fit-margin-left="0"
     fit-margin-right="0"
     fit-margin-bottom="0" />
  <metadata
     id="metadata7">
    <rdf:RDF>
      <cc:Work
         rdf:about="">
        <dc:format>image/svg+xml</dc:format>
        <dc:type
           rdf:resource="http://purl.org/dc/dcmitype/StillImage" />
        <dc:title></dc:title>
      </cc:Work>
    </rdf:RDF>
  </metadata>
  <g
     inkscape:groupmode="layer"
     id="layer2"
     inkscape:label="2"
     transform="translate(-0.36328174,-403.13685)">
    <path
       style="fill:url(#linearGradient3001);fill-opacity:1;fill-rule:evenodd;stroke:none"
       d="M 0.36328174,590.63604 C 128.83143,589.48808 515.77444,590.68684 711.67409,590.31638 c 151.56436,-0.28664 276.12243,-3.02505 407.68441,-2.55456 17.0837,9.14594 20.8296,18.44514 36.8367,27.62235 15.2321,8.73287 15.7221,15.3254 52.5943,20.71953 22.8764,0.49557 32.8073,0.21389 66.7236,-0.8174 4.04,-10.37974 0.1363,-10.31003 3.6696,-19.34669 23.1211,-0.77834 59.0617,0.4708 86.5082,-0.61979 l 0.047,5.68096 c -35.7211,1.24529 -55.0975,0.46593 -74.5094,1.00147 -3.4164,9.20627 -0.099,24.69724 -1.9288,35.23734 -41.899,-1.03129 -50.9653,0.10849 -102.6267,-0.81741 -23.5802,-0.42262 -55.7725,-41.42121 -74.321,-47.91516 -18.5484,-6.49396 -29.746,-11.56711 -86.6708,-12.41998 -132.4527,-1.98444 -215.60072,-1.11143 -317.3288,-0.84149 -209.8908,0.55696 -579.60846,0.68467 -707.80770096,0.18049 z"
       id="path2991"
       inkscape:connector-curvature="0"
       sodipodi:nodetypes="cscscccccccszsscc" />
  </g>
  <g
     inkscape:label="Layer 1"
     inkscape:groupmode="layer"
     id="layer1"
     transform="translate(-0.36328174,-788.49903)">
    <path
       style="fill:url(#linearGradient3776);fill-opacity:1;fill-rule:evenodd;stroke:none"
       d="m 1.081781,947.26967 c 28.272571,-0.60446 529.152799,-0.36903 731.448839,-0.91485 39.70828,-0.10713 48.92188,-0.25799 85.85438,-7.32363 51.22459,-24.45316 73.36758,-76.52624 114.78766,-109.0613 45.22312,-35.52231 67.75404,-41.43727 106.23924,-41.46944 81.3406,-0.068 136.2927,2.33734 217.9367,1.88545 -0.5621,26.0655 -1.4582,45.66926 6.1367,67.78588 4.8484,14.11855 86.3519,9.34069 105.1408,9.53572 l -0.053,31.09778 c 0,0 -88.3498,4.49913 -119.3208,-7.17139 -9.2226,-3.47526 -23.055,-14.41973 -25.8822,-39.01187 -56.2894,1.7311 -129.7144,-1.37237 -204.3497,0.60027 -39.77255,16.00678 -37.70522,19.92404 -58.68095,35.50234 -42.03458,28.82744 -57.93696,52.86686 -98.55251,67.34253 -38.09301,14.30325 -86.80585,11.24153 -126.6205,11.37464 -202.83795,0.67815 -696.476956,3.84286 -734.2995555,2.22048 z"
       id="path2985"
       inkscape:connector-curvature="0"
       sodipodi:nodetypes="cscsscsccsccccscc" />
  </g>
</svg>
